HIERARCHY
ROOT hips
{
	OFFSET -0.003675 0.299928 -0.021708
	CHANNELS 6 Xposition Yposition Zposition Xrotation Yrotation Zrotation
	JOINT LowerBack
	{
		OFFSET 0.000919 0.177588 0.009275
		CHANNELS 3 Xrotation Yrotation Zrotation
		JOINT spine
		{
			OFFSET 0.000919 0.177588 0.009275
			CHANNELS 3 Xrotation Yrotation Zrotation
			JOINT chest
			{
				OFFSET 0.000456 0.100015 0.004638
				CHANNELS 3 Xrotation Yrotation Zrotation
				JOINT neck
				{
					OFFSET 0.000456 0.100015 0.004638
					CHANNELS 3 Xrotation Yrotation Zrotation
					JOINT head
					{
						OFFSET 0.000924 0.155147 0.009274
						CHANNELS 6 Xposition Yposition Zposition Xrotation Yrotation Zrotation
						End Site
						{
							OFFSET 0.000000 0.153400 0.000000
						}
					}
				}
				JOINT shoulder.L
				{
					OFFSET 0.019937 0.078966 0.057518
					CHANNELS 6 Xposition Yposition Zposition Yrotation Xrotation Zrotation
					JOINT upper_arm.L
					{
						OFFSET 0.177024 -0.020465 -0.095062
						CHANNELS 6 Xposition Yposition Zposition Xrotation Yrotation Zrotation
						JOINT forearm.L
						{
							OFFSET 0.247100 -0.135500 -0.061800
							CHANNELS 3 Xrotation Yrotation Zrotation
							JOINT hand.L
							{
								OFFSET 0.217000 -0.143000 0.039300
								CHANNELS 3 Xrotation Yrotation Zrotation
								JOINT palm.01.L
								{
									OFFSET 0.021770 -0.038291 0.012954
									CHANNELS 6 Xposition Yposition Zposition Yrotation Xrotation Zrotation
									JOINT f_index.01.L
									{
										OFFSET 0.053215 -0.044137 0.008236
										CHANNELS 3 Xrotation Yrotation Zrotation
										JOINT f_index.02.L
										{
											OFFSET 0.036108 -0.024723 -0.010656
											CHANNELS 3 Xrotation Yrotation Zrotation
											JOINT f_index.03.L
											{
												OFFSET 0.021342 -0.014948 -0.010846
												CHANNELS 3 Xrotation Yrotation Zrotation
												End Site
												{
													OFFSET 0.015600 -0.009860 -0.013421
												}
											}
										}
									}
									JOINT thumb.01.L
									{
										OFFSET -0.009090 -0.002348 -0.024223
										CHANNELS 6 Xposition Yposition Zposition Xrotation Yrotation Zrotation
										JOINT thumb.02.L
										{
											OFFSET 0.019713 -0.035076 -0.011120
											CHANNELS 3 Xrotation Yrotation Zrotation
											JOINT thumb.03.L
											{
												OFFSET 0.024877 -0.021748 -0.005176
												CHANNELS 3 Xrotation Yrotation Zrotation
												End Site
												{
													OFFSET 0.016125 -0.013029 -0.001569
												}
											}
										}
									}
								}
								JOINT palm.02.L
								{
									OFFSET 0.032823 -0.025104 0.012281
									CHANNELS 6 Xposition Yposition Zposition Yrotation Xrotation Zrotation
									JOINT f_middle.01.L
									{
										OFFSET 0.055723 -0.038469 0.008037
										CHANNELS 3 Xrotation Yrotation Zrotation
										JOINT f_middle.02.L
										{
											OFFSET 0.038167 -0.027473 -0.015582
											CHANNELS 3 Xrotation Yrotation Zrotation
											JOINT f_middle.03.L
											{
												OFFSET 0.021707 -0.016587 -0.017037
												CHANNELS 3 Xrotation Yrotation Zrotation
												End Site
												{
													OFFSET 0.014112 -0.010584 -0.014294
												}
											}
										}
									}
								}
								JOINT palm.03.L
								{
									OFFSET 0.039230 -0.011402 0.008390
									CHANNELS 6 Xposition Yposition Zposition Yrotation Xrotation Zrotation
									JOINT f_ring.01.L
									{
										OFFSET 0.061796 -0.031470 0.007910
										CHANNELS 3 Xrotation Yrotation Zrotation
										JOINT f_ring.02.L
										{
											OFFSET 0.033092 -0.023401 -0.019127
											CHANNELS 3 Xrotation Yrotation Zrotation
											JOINT f_ring.03.L
											{
												OFFSET 0.021392 -0.015362 -0.017824
												CHANNELS 3 Xrotation Yrotation Zrotation
												End Site
												{
													OFFSET 0.008670 -0.007297 -0.014686
												}
											}
										}
									}
								}
								JOINT palm.04.L
								{
									OFFSET 0.043417 0.002450 0.002889
									CHANNELS 6 Xposition Yposition Zposition Yrotation Xrotation Zrotation
									JOINT f_pinky.01.L
									{
										OFFSET 0.069986 -0.026156 0.003627
										CHANNELS 3 Xrotation Yrotation Zrotation
										JOINT f_pinky.02.L
										{
											OFFSET 0.018520 -0.012813 -0.016429
											CHANNELS 3 Xrotation Yrotation Zrotation
											JOINT f_pinky.03.L
											{
												OFFSET 0.013822 -0.009796 -0.014947
												CHANNELS 3 Xrotation Yrotation Zrotation
												End Site
												{
													OFFSET 0.007238 -0.006103 -0.011657
												}
											}
										}
									}
								}
							}
						}
					}
				}
				JOINT shoulder.R
				{
					OFFSET -0.016662 0.078957 0.057696
					CHANNELS 6 Xposition Yposition Zposition Yrotation Xrotation Zrotation
					JOINT upper_arm.R
					{
						OFFSET -0.176972 -0.020537 -0.095144
						CHANNELS 6 Xposition Yposition Zposition Xrotation Yrotation Zrotation
						JOINT forearm.R
						{
							OFFSET -0.247100 -0.135500 -0.061800
							CHANNELS 3 Xrotation Yrotation Zrotation
							JOINT hand.R
							{
								OFFSET -0.217000 -0.143000 0.039300
								CHANNELS 3 Xrotation Yrotation Zrotation
								JOINT palm.01.R
								{
									OFFSET -0.021773 -0.038278 0.012988
									CHANNELS 6 Xposition Yposition Zposition Yrotation Xrotation Zrotation
									JOINT f_index.01.R
									{
										OFFSET -0.053212 -0.044139 0.008249
										CHANNELS 3 Xrotation Yrotation Zrotation
										JOINT f_index.02.R
										{
											OFFSET -0.036049 -0.024835 -0.010634
											CHANNELS 3 Xrotation Yrotation Zrotation
											JOINT f_index.03.R
											{
												OFFSET -0.021371 -0.014881 -0.010866
												CHANNELS 3 Xrotation Yrotation Zrotation
												End Site
												{
													OFFSET -0.015584 -0.009883 -0.013422
												}
											}
										}
									}
									JOINT thumb.01.R
									{
										OFFSET 0.009113 -0.002381 -0.024211
										CHANNELS 6 Xposition Yposition Zposition Xrotation Yrotation Zrotation
										JOINT thumb.02.R
										{
											OFFSET -0.019694 -0.035097 -0.011088
											CHANNELS 3 Xrotation Yrotation Zrotation
											JOINT thumb.03.R
											{
												OFFSET -0.024867 -0.021762 -0.005168
												CHANNELS 3 Xrotation Yrotation Zrotation
												End Site
												{
													OFFSET -0.016120 -0.013036 -0.001565
												}
											}
										}
									}
								}
								JOINT palm.02.R
								{
									OFFSET -0.032828 -0.025095 0.012286
									CHANNELS 6 Xposition Yposition Zposition Yrotation Xrotation Zrotation
									JOINT f_middle.01.R
									{
										OFFSET -0.055721 -0.038472 0.008040
										CHANNELS 3 Xrotation Yrotation Zrotation
										JOINT f_middle.02.R
										{
											OFFSET -0.038101 -0.027593 -0.015557
											CHANNELS 3 Xrotation Yrotation Zrotation
											JOINT f_middle.03.R
											{
												OFFSET -0.021730 -0.016530 -0.017054
												CHANNELS 3 Xrotation Yrotation Zrotation
												End Site
												{
													OFFSET -0.014096 -0.010608 -0.014293
												}
											}
										}
									}
								}
								JOINT palm.03.R
								{
									OFFSET -0.039192 -0.011488 0.008390
									CHANNELS 6 Xposition Yposition Zposition Yrotation Xrotation Zrotation
									JOINT f_ring.01.R
									{
										OFFSET -0.061839 -0.031387 0.007876
										CHANNELS 3 Xrotation Yrotation Zrotation
										JOINT f_ring.02.R
										{
											OFFSET -0.033068 -0.023437 -0.019125
											CHANNELS 3 Xrotation Yrotation Zrotation
											JOINT f_ring.03.R
											{
												OFFSET -0.021371 -0.015393 -0.017822
												CHANNELS 3 Xrotation Yrotation Zrotation
												End Site
												{
													OFFSET -0.008654 -0.007321 -0.014684
												}
											}
										}
									}
								}
								JOINT palm.04.R
								{
									OFFSET -0.043421 0.002443 0.002845
									CHANNELS 6 Xposition Yposition Zposition Yrotation Xrotation Zrotation
									JOINT f_pinky.01.R
									{
										OFFSET -0.069983 -0.026169 0.003599
										CHANNELS 3 Xrotation Yrotation Zrotation
										JOINT f_pinky.02.R
										{
											OFFSET -0.018501 -0.012842 -0.016428
											CHANNELS 3 Xrotation Yrotation Zrotation
											JOINT f_pinky.03.R
											{
												OFFSET -0.013806 -0.009821 -0.014946
												CHANNELS 3 Xrotation Yrotation Zrotation
												End Site
												{
													OFFSET -0.007226 -0.006121 -0.011655
												}
											}
										}
									}
								}
							}
						}
					}
				}
			}
		}
	}
	JOINT pelvis.L
	{
		OFFSET 0.000000 0.000000 0.000000
		CHANNELS 6 Xposition Yposition Zposition Xrotation Yrotation Zrotation
		JOINT thigh.L
		{
			OFFSET 0.101675 0.001054 -0.000000
			CHANNELS 3 Xrotation Yrotation Zrotation
			JOINT shin.L
			{
				OFFSET 0.000000 -0.534800 0.041000
				CHANNELS 3 Xrotation Yrotation Zrotation
				JOINT foot.L
				{
					OFFSET 0.000000 -0.452000 -0.044800
					CHANNELS 3 Xrotation Yrotation Zrotation
					JOINT toe.L
					{
						OFFSET -0.000000 -0.068500 0.109600
						CHANNELS 3 Xrotation Yrotation Zrotation
						End Site
						{
							OFFSET -0.000000 0.000000 0.067200
						}
					}
				}
				JOINT heel.L
				{
					OFFSET 0.000000 -0.452000 -0.044800
					CHANNELS 3 Xrotation Yrotation Zrotation
					JOINT heel.02.L
					{
						OFFSET -0.038000 -0.085200 0.016200
						CHANNELS 6 Xposition Yposition Zposition Xrotation Yrotation Zrotation
						End Site
						{
							OFFSET 0.080000 -0.000000 0.000000
						}
					}
				}
			}
		}
	}
	JOINT pelvis.R
	{
		OFFSET 0.000000 0.000000 0.000000
		CHANNELS 6 Xposition Yposition Zposition Xrotation Yrotation Zrotation
		JOINT thigh.R
		{
			OFFSET -0.094325 0.001054 0.000000
			CHANNELS 3 Xrotation Yrotation Zrotation
			JOINT shin.R
			{
				OFFSET 0.000000 -0.534800 0.041000
				CHANNELS 3 Xrotation Yrotation Zrotation
				JOINT foot.R
				{
					OFFSET 0.000000 -0.452000 -0.044800
					CHANNELS 3 Xrotation Yrotation Zrotation
					JOINT toe.R
					{
						OFFSET -0.000000 -0.068500 0.109600
						CHANNELS 3 Xrotation Yrotation Zrotation
						End Site
						{
							OFFSET -0.000000 0.000000 0.067200
						}
					}
				}
				JOINT heel.R
				{
					OFFSET 0.000000 -0.452000 -0.044800
					CHANNELS 3 Xrotation Yrotation Zrotation
					JOINT heel.02.R
					{
						OFFSET 0.038000 -0.085200 0.016200
						CHANNELS 6 Xposition Yposition Zposition Xrotation Yrotation Zrotation
						End Site
						{
							OFFSET -0.080000 0.000000 -0.000000
						}
					}
				}
			}
		}
	}
}
MOTION
Frames: 4
Frame Time: 0.041667
0.006383 0.271922 -0.017800 92.176374 -66.659231 89.226115 -0.000001 -0.000000 -0.000000 -0.000003 0.000000 0.000000 0.000000 -0.000000 0.000000 0.000002 0.000000 0.000001 0.000924 0.155147 0.009274 16.131829 -0.020760 -0.112522 0.019937 0.078966 0.057518 -29.845423 7.936908 48.992165 0.177024 -0.020465 -0.095062 -76.758035 -0.800889 -41.381606 -3.566096 -5.741962 1.831694 -0.000000 -0.000001 0.000001 0.021770 -0.038291 0.012954 -0.000001 0.000003 0.000001 -0.000004 0.000002 -0.000000 -0.000005 0.000003 0.000003 -0.000000 0.000002 0.000002 -0.009090 -0.002348 -0.024223 -0.000000 0.000002 0.000003 -0.000005 0.000001 0.000001 0.000000 0.000002 0.000001 0.032823 -0.025104 0.012281 -0.000002 -0.000001 0.000002 -0.000000 -0.000001 0.000002 -0.000004 -0.000003 0.000007 -0.000002 -0.000003 -0.000002 0.039230 -0.011402 0.008390 -0.000001 -0.000002 0.000003 0.000001 0.000000 -0.000002 -0.000001 0.000003 0.000001 -0.000002 -0.000000 0.000003 0.043417 0.002450 0.002889 -0.000003 0.000003 -0.000002 -0.000009 -0.000006 0.000003 0.000003 0.000002 0.000000 0.000003 0.000000 -0.000003 -0.016662 0.078956 0.057696 -20.592918 6.588430 -29.788675 -0.176972 -0.020537 -0.095144 -36.311721 -0.470515 40.912089 -12.519510 12.720634 13.319277 -0.000002 0.000002 -0.000002 -0.021773 -0.038278 0.012988 0.000003 -0.000002 0.000000 -0.000001 0.000003 0.000004 -0.000000 0.000003 -0.000004 -0.000003 -0.000005 0.000004 0.009113 -0.002381 -0.024212 -0.000001 -0.000000 0.000002 -0.000000 0.000000 0.000002 -0.000001 0.000001 -0.000006 -0.032828 -0.025095 0.012286 0.000004 0.000001 -0.000001 -0.000001 0.000004 -0.000006 0.000002 0.000000 -0.000000 -0.000003 0.000002 -0.000007 -0.039192 -0.011488 0.008390 0.000002 0.000000 0.000001 0.000001 0.000000 -0.000003 -0.000000 -0.000001 -0.000002 0.000001 0.000001 -0.000001 -0.043421 0.002443 0.002845 0.000002 0.000002 0.000002 -0.000000 -0.000001 -0.000000 0.000001 -0.000006 0.000000 -0.000003 -0.000000 0.000002 0.000000 0.000000 0.000000 -1.770234 0.383763 -5.592550 -50.362974 -0.053218 2.021483 17.050411 0.673832 -6.812811 -0.000002 0.000000 -0.000001 -0.000000 -0.000000 0.000001 0.000000 -0.000000 -0.000001 -0.038000 -0.085200 0.016200 -0.000004 -0.000001 -0.000000 0.000000 0.000000 0.000000 -1.719713 0.379348 -4.358700 -43.045355 0.376093 1.885380 44.370869 0.879966 -8.913922 0.000000 0.000001 -0.000001 0.000005 0.000000 -0.000000 0.000007 0.000000 -0.000002 0.038000 -0.085200 0.016200 0.000002 0.000000 -0.000001 
0.006414 0.269171 -0.019156 91.662669 -67.985920 91.409030 0.000000 0.000000 -0.000000 -0.000003 -0.000000 0.000000 -0.000002 -0.000000 0.000000 0.000002 -0.000000 -0.000000 0.000924 0.155148 0.009274 15.892757 -0.021136 1.326585 0.019937 0.078966 0.057518 -27.878221 7.545961 49.538170 0.177024 -0.020465 -0.095062 -79.539718 2.235094 -42.280660 -3.282629 -5.086637 -0.532664 -0.000001 0.000001 0.000003 0.021770 -0.038291 0.012954 0.000001 -0.000002 -0.000000 -0.000000 -0.000004 0.000001 -0.000000 0.000003 0.000009 -0.000000 -0.000002 0.000001 -0.009090 -0.002348 -0.024224 0.000003 -0.000001 -0.000001 0.000001 0.000001 -0.000002 0.000003 -0.000001 -0.000001 0.032823 -0.025104 0.012281 0.000000 -0.000001 0.000002 0.000000 0.000003 -0.000003 0.000001 -0.000002 0.000001 0.000000 0.000003 -0.000001 0.039230 -0.011402 0.008390 0.000001 0.000002 0.000006 0.000001 -0.000001 0.000001 -0.000003 0.000003 0.000003 0.000001 -0.000006 0.000003 0.043417 0.002450 0.002889 0.000000 0.000003 -0.000002 -0.000001 -0.000006 -0.000000 0.000002 -0.000000 -0.000004 -0.000001 0.000002 -0.000004 -0.016662 0.078957 0.057696 -19.045472 6.036881 -30.112788 -0.176972 -0.020537 -0.095144 -36.322741 -3.068125 44.118217 -16.076628 13.544686 19.998384 -0.000001 0.000005 0.000001 -0.021773 -0.038278 0.012988 -0.000002 -0.000003 -0.000002 -0.000000 -0.000002 -0.000005 -0.000000 -0.000002 0.000001 -0.000000 0.000002 0.000003 0.009113 -0.002381 -0.024212 0.000000 -0.000001 -0.000003 -0.000000 -0.000000 -0.000003 -0.000001 0.000000 -0.000004 -0.032828 -0.025095 0.012286 -0.000001 0.000000 0.000001 0.000001 0.000002 0.000004 0.000003 -0.000002 -0.000006 -0.000003 0.000003 -0.000004 -0.039192 -0.011488 0.008390 -0.000003 0.000000 0.000001 -0.000000 0.000001 -0.000003 -0.000001 -0.000000 -0.000000 -0.000002 -0.000002 -0.000003 -0.043421 0.002443 0.002845 -0.000001 -0.000002 -0.000002 -0.000003 0.000003 -0.000002 -0.000003 -0.000003 0.000002 0.000000 0.000004 0.000001 0.000000 0.000000 -0.000000 -1.825098 0.396204 -5.682063 -49.527225 -0.028366 2.351906 14.617375 0.443280 -4.474985 0.000000 0.000000 -0.000000 -0.000001 -0.000000 -0.000001 0.000002 -0.000000 0.000001 -0.038000 -0.085200 0.016200 0.000001 -0.000000 0.000000 0.000000 0.000000 -0.000000 -1.772802 0.391550 -4.448224 -40.085636 0.337695 1.500868 37.908465 0.644785 -6.518963 -0.000002 -0.000000 0.000001 0.000000 0.000000 0.000001 0.000005 -0.000000 0.000001 0.038000 -0.085200 0.016200 -0.000000 0.000000 0.000002 
0.008068 0.267657 -0.018211 94.293193 -67.089369 93.072843 0.000000 0.000000 0.000000 -0.000003 0.000000 0.000000 -0.000003 -0.000000 -0.000000 -0.000002 -0.000000 -0.000000 0.000924 0.155148 0.009274 16.016174 -0.021644 0.638012 0.019937 0.078966 0.057518 -26.385536 7.316032 50.427836 0.177024 -0.020465 -0.095062 -79.483226 -2.252076 -41.074770 -1.280974 -2.319762 -0.309635 -0.000006 0.000000 -0.000004 0.021770 -0.038291 0.012954 0.000001 -0.000003 -0.000002 0.000004 -0.000000 0.000001 0.000003 -0.000004 0.000006 -0.000000 0.000004 -0.000000 -0.009090 -0.002348 -0.024223 0.000003 0.000000 -0.000003 -0.000005 -0.000000 0.000001 -0.000004 0.000004 -0.000002 0.032823 -0.025104 0.012281 -0.000002 0.000003 0.000002 0.000001 -0.000001 -0.000003 -0.000003 -0.000000 -0.000000 -0.000005 -0.000006 0.000004 0.039230 -0.011402 0.008390 0.000000 0.000001 0.000004 0.000004 -0.000001 -0.000002 0.000002 0.000005 0.000005 0.000001 -0.000004 0.000003 0.043417 0.002450 0.002889 0.000000 -0.000000 -0.000003 -0.000005 -0.000003 -0.000002 -0.000005 0.000001 0.000001 -0.000003 -0.000001 -0.000001 -0.016662 0.078957 0.057696 -17.574302 5.303191 -29.558552 -0.176972 -0.020537 -0.095144 -38.775438 -3.519176 44.809036 -13.539440 12.001766 18.878510 0.000001 0.000001 0.000002 -0.021773 -0.038278 0.012988 -0.000000 -0.000000 0.000002 -0.000002 0.000003 -0.000004 -0.000000 -0.000000 -0.000004 -0.000000 0.000000 0.000001 0.009114 -0.002381 -0.024211 -0.000002 0.000002 -0.000002 -0.000001 -0.000003 0.000002 0.000001 0.000000 0.000003 -0.032828 -0.025095 0.012286 -0.000001 0.000003 0.000001 0.000005 0.000002 -0.000004 0.000001 -0.000003 -0.000001 -0.000003 0.000003 -0.000006 -0.039192 -0.011488 0.008390 -0.000001 0.000001 -0.000000 -0.000003 0.000006 -0.000003 0.000003 -0.000003 -0.000000 0.000001 0.000004 -0.000002 -0.043421 0.002443 0.002845 0.000000 0.000001 0.000000 -0.000003 0.000004 -0.000002 -0.000001 -0.000003 0.000003 -0.000001 0.000001 0.000002 0.000000 0.000000 -0.000000 -1.878226 0.486043 -6.671791 -54.058249 -0.127953 1.234783 14.663421 0.397879 -4.015653 0.000000 0.000000 -0.000000 -0.000004 -0.000000 0.000000 0.000000 0.000000 -0.000000 -0.038000 -0.085200 0.016200 -0.000003 -0.000001 0.000001 0.000000 0.000000 0.000000 -1.821558 0.480008 -5.438072 -45.183713 0.374729 1.704490 35.955017 0.670098 -6.776168 0.000000 -0.000000 -0.000000 0.000000 -0.000000 0.000001 0.000005 0.000001 -0.000000 0.038000 -0.085200 0.016200 -0.000003 -0.000000 -0.000001 
0.008794 0.271883 -0.018720 92.518396 -68.656515 91.048607 -0.000002 0.000000 -0.000000 0.000001 -0.000000 -0.000000 0.000000 0.000000 0.000000 0.000000 -0.000000 -0.000000 0.000924 0.155148 0.009274 16.445371 -0.021543 -0.257553 0.019937 0.078966 0.057518 -23.998469 6.973510 48.794858 0.177024 -0.020465 -0.095062 -74.790612 -2.710353 -41.162654 -5.385020 -7.622284 -2.592249 0.000003 -0.000002 0.000002 0.021770 -0.038291 0.012954 0.000001 0.000004 0.000001 -0.000007 -0.000000 -0.000000 -0.000003 -0.000000 0.000005 0.000001 0.000002 0.000002 -0.009090 -0.002348 -0.024224 -0.000001 -0.000000 -0.000001 0.000003 -0.000003 -0.000001 -0.000000 -0.000001 0.000003 0.032823 -0.025104 0.012281 -0.000000 0.000000 0.000009 0.000001 0.000002 -0.000007 -0.000001 -0.000001 -0.000000 -0.000006 0.000005 0.000003 0.039230 -0.011402 0.008390 -0.000000 0.000004 0.000008 -0.000001 -0.000000 -0.000002 -0.000000 0.000005 0.000005 0.000000 -0.000003 0.000002 0.043417 0.002450 0.002889 -0.000001 0.000003 0.000002 -0.000002 -0.000007 -0.000003 -0.000001 0.000004 -0.000001 0.000000 0.000001 0.000001 -0.016662 0.078957 0.057696 -15.823935 4.976946 -28.933105 -0.176972 -0.020537 -0.095144 -31.415090 -5.417942 46.152275 -17.818837 12.665753 26.988932 -0.000000 0.000001 0.000002 -0.021773 -0.038278 0.012988 -0.000001 0.000000 -0.000003 -0.000002 -0.000001 -0.000003 -0.000002 -0.000004 0.000000 -0.000002 0.000000 0.000001 0.009114 -0.002381 -0.024212 -0.000000 -0.000001 -0.000003 -0.000001 0.000000 0.000004 -0.000000 0.000002 -0.000008 -0.032828 -0.025095 0.012286 -0.000003 0.000002 0.000001 0.000002 0.000003 0.000002 0.000002 0.000000 0.000005 0.000000 0.000003 -0.000004 -0.039192 -0.011488 0.008390 -0.000000 0.000001 0.000005 -0.000003 0.000003 -0.000003 -0.000002 0.000000 -0.000009 -0.000000 -0.000001 -0.000002 -0.043421 0.002443 0.002844 -0.000001 -0.000001 -0.000001 -0.000003 0.000009 -0.000003 -0.000001 -0.000003 0.000002 0.000004 0.000004 0.000003 0.000000 0.000000 -0.000000 -1.824122 0.402629 -5.758879 -54.419447 -0.083077 1.798412 19.106457 0.325286 -3.281703 0.000000 0.000001 -0.000000 -0.000000 0.000000 0.000001 0.000000 0.000000 -0.000000 -0.038000 -0.085200 0.016200 -0.000002 0.000001 0.000000 0.000000 0.000000 0.000000 -1.771646 0.397883 -4.525072 -44.820179 0.309405 0.897351 33.754279 0.460963 -4.655302 0.000000 0.000000 -0.000000 0.000000 -0.000000 0.000001 0.000010 0.000000 0.000001 0.038000 -0.085200 0.016200 -0.000002 0.000000 0.000000 
